<svg xmlns="http://www.w3.org/2000/svg" viewBox="0 0 1000 800">
  <!-- Background -->
  <rect width="100%" height="100%" fill="#1a1d21" />
  
  <!-- Title -->
  <text x="500" y="40" font-family="Arial" font-size="24" fill="white" text-anchor="middle" font-weight="bold">Job Application Tracker - System Architecture</text>
  
  <!-- Main Containers -->
  <rect x="50" y="80" width="440" height="650" rx="10" fill="#1e2128" stroke="#3B82F6" stroke-width="2" opacity="0.8" />
  <text x="270" y="110" font-family="Arial" font-size="18" fill="white" text-anchor="middle" font-weight="bold">Frontend (React + TypeScript)</text>
  
  <rect x="510" y="80" width="440" height="650" rx="10" fill="#1e2128" stroke="#10B981" stroke-width="2" opacity="0.8" />
  <text x="730" y="110" font-family="Arial" font-size="18" fill="white" text-anchor="middle" font-weight="bold">Backend (FastAPI + Python)</text>
  
  <!-- Frontend Architecture -->
  <!-- Views Layer -->
  <rect x="80" y="140" width="380" height="100" rx="5" fill="#2d3748" stroke="#a0aec0" stroke-width="1" />
  <text x="270" y="160" font-family="Arial" font-size="16" fill="white" text-anchor="middle">Views (UI Components)</text>
  <rect x="100" y="170" width="100" height="30" rx="5" fill="#4A5568" stroke="#a0aec0" stroke-width="1" />
  <text x="150" y="190" font-family="Arial" font-size="12" fill="white" text-anchor="middle">JobTracker</text>
  <rect x="220" y="170" width="100" height="30" rx="5" fill="#4A5568" stroke="#a0aec0" stroke-width="1" />
  <text x="270" y="190" font-family="Arial" font-size="12" fill="white" text-anchor="middle">GmailImport</text>
  <rect x="340" y="170" width="100" height="30" rx="5" fill="#4A5568" stroke="#a0aec0" stroke-width="1" />
  <text x="390" y="190" font-family="Arial" font-size="12" fill="white" text-anchor="middle">Analytics</text>
  <rect x="100" y="205" width="100" height="30" rx="5" fill="#4A5568" stroke="#a0aec0" stroke-width="1" />
  <text x="150" y="225" font-family="Arial" font-size="12" fill="white" text-anchor="middle">WorkflowEditor</text>
  <rect x="220" y="205" width="100" height="30" rx="5" fill="#4A5568" stroke="#a0aec0" stroke-width="1" />
  <text x="270" y="225" font-family="Arial" font-size="12" fill="white" text-anchor="middle">ActivityHistory</text>
  <rect x="340" y="205" width="100" height="30" rx="5" fill="#4A5568" stroke="#a0aec0" stroke-width="1" />
  <text x="390" y="225" font-family="Arial" font-size="12" fill="white" text-anchor="middle">Login/Auth</text>
  
  <!-- ViewModels -->
  <rect x="80" y="260" width="380" height="110" rx="5" fill="#2d3748" stroke="#a0aec0" stroke-width="1" />
  <text x="270" y="280" font-family="Arial" font-size="16" fill="white" text-anchor="middle">ViewModels (Presentation Logic)</text>
  <rect x="100" y="290" width="100" height="30" rx="5" fill="#4A5568" stroke="#a0aec0" stroke-width="1" />
  <text x="150" y="310" font-family="Arial" font-size="12" fill="white" text-anchor="middle">JobTrackerVM</text>
  <rect x="220" y="290" width="100" height="30" rx="5" fill="#4A5568" stroke="#a0aec0" stroke-width="1" />
  <text x="270" y="310" font-family="Arial" font-size="12" fill="white" text-anchor="middle">GmailImportVM</text>
  <rect x="340" y="290" width="100" height="30" rx="5" fill="#4A5568" stroke="#a0aec0" stroke-width="1" />
  <text x="390" y="310" font-family="Arial" font-size="12" fill="white" text-anchor="middle">AnalyticsVM</text>
  <rect x="100" y="330" width="100" height="30" rx="5" fill="#4A5568" stroke="#a0aec0" stroke-width="1" />
  <text x="150" y="350" font-family="Arial" font-size="12" fill="white" text-anchor="middle">WorkflowEditorVM</text>
  <rect x="220" y="330" width="100" height="30" rx="5" fill="#4A5568" stroke="#a0aec0" stroke-width="1" />
  <text x="270" y="350" font-family="Arial" font-size="12" fill="white" text-anchor="middle">ActivityHistoryVM</text>
  <rect x="340" y="330" width="100" height="30" rx="5" fill="#4A5568" stroke="#a0aec0" stroke-width="1" />
  <text x="390" y="350" font-family="Arial" font-size="12" fill="white" text-anchor="middle">AuthVM</text>
  
  <!-- Domain Models -->
  <rect x="80" y="390" width="380" height="110" rx="5" fill="#2d3748" stroke="#a0aec0" stroke-width="1" />
  <text x="270" y="410" font-family="Arial" font-size="16" fill="white" text-anchor="middle">Domain Models (Business Logic)</text>
  <rect x="100" y="420" width="100" height="30" rx="5" fill="#4A5568" stroke="#a0aec0" stroke-width="1" />
  <text x="150" y="440" font-family="Arial" font-size="12" fill="white" text-anchor="middle">ApplicationModel</text>
  <rect x="220" y="420" width="100" height="30" rx="5" fill="#4A5568" stroke="#a0aec0" stroke-width="1" />
  <text x="270" y="440" font-family="Arial" font-size="12" fill="white" text-anchor="middle">GmailImportModel</text>
  <rect x="340" y="420" width="100" height="30" rx="5" fill="#4A5568" stroke="#a0aec0" stroke-width="1" />
  <text x="390" y="440" font-family="Arial" font-size="12" fill="white" text-anchor="middle">EmailProcModel</text>
  <rect x="100" y="460" width="100" height="30" rx="5" fill="#4A5568" stroke="#a0aec0" stroke-width="1" />
  <text x="150" y="480" font-family="Arial" font-size="12" fill="white" text-anchor="middle">WorkflowModel</text>
  <rect x="220" y="460" width="100" height="30" rx="5" fill="#4A5568" stroke="#a0aec0" stroke-width="1" />
  <text x="270" y="480" font-family="Arial" font-size="12" fill="white" text-anchor="middle">ActivityHistory</text>
  <rect x="340" y="460" width="100" height="30" rx="5" fill="#4A5568" stroke="#a0aec0" stroke-width="1" />
  <text x="390" y="480" font-family="Arial" font-size="12" fill="white" text-anchor="middle">AuthModel</text>
  
  <!-- Infrastructure Services -->
  <rect x="80" y="520" width="380" height="110" rx="5" fill="#2d3748" stroke="#a0aec0" stroke-width="1" />
  <text x="270" y="540" font-family="Arial" font-size="16" fill="white" text-anchor="middle">Infrastructure Services (API Communication)</text>
  <rect x="100" y="550" width="100" height="30" rx="5" fill="#4A5568" stroke="#3B82F6" stroke-width="1" />
  <text x="150" y="570" font-family="Arial" font-size="12" fill="white" text-anchor="middle">ApplicationService</text>
  <rect x="220" y="550" width="100" height="30" rx="5" fill="#4A5568" stroke="#3B82F6" stroke-width="1" />
  <text x="270" y="570" font-family="Arial" font-size="12" fill="white" text-anchor="middle">GmailService</text>
  <rect x="340" y="550" width="100" height="30" rx="5" fill="#4A5568" stroke="#3B82F6" stroke-width="1" />
  <text x="390" y="570" font-family="Arial" font-size="12" fill="white" text-anchor="middle">EmailService</text>
  <rect x="100" y="590" width="100" height="30" rx="5" fill="#4A5568" stroke="#3B82F6" stroke-width="1" />
  <text x="150" y="610" font-family="Arial" font-size="12" fill="white" text-anchor="middle">WorkflowService</text>
  <rect x="220" y="590" width="100" height="30" rx="5" fill="#4A5568" stroke="#3B82F6" stroke-width="1" />
  <text x="270" y="610" font-family="Arial" font-size="12" fill="white" text-anchor="middle">AnalyticsService</text>
  <rect x="340" y="590" width="100" height="30" rx="5" fill="#4A5568" stroke="#3B82F6" stroke-width="1" />
  <text x="390" y="610" font-family="Arial" font-size="12" fill="white" text-anchor="middle">AuthService</text>
  
  <!-- API Client -->
  <rect x="80" y="650" width="380" height="60" rx="5" fill="#2d3748" stroke="#3B82F6" stroke-width="2" />
  <text x="270" y="685" font-family="Arial" font-size="16" fill="white" text-anchor="middle">API Client (axios)</text>

  <!-- Backend Architecture -->
  <!-- API Routers Layer -->
  <rect x="540" y="140" width="380" height="100" rx="5" fill="#2d3748" stroke="#a0aec0" stroke-width="1" />
  <text x="730" y="160" font-family="Arial" font-size="16" fill="white" text-anchor="middle">API Routers (Endpoints)</text>
  <rect x="560" y="170" width="100" height="30" rx="5" fill="#4A5568" stroke="#a0aec0" stroke-width="1" />
  <text x="610" y="190" font-family="Arial" font-size="12" fill="white" text-anchor="middle">applications</text>
  <rect x="680" y="170" width="100" height="30" rx="5" fill="#4A5568" stroke="#a0aec0" stroke-width="1" />
  <text x="730" y="190" font-family="Arial" font-size="12" fill="white" text-anchor="middle">workflow</text>
  <rect x="800" y="170" width="100" height="30" rx="5" fill="#4A5568" stroke="#a0aec0" stroke-width="1" />
  <text x="850" y="190" font-family="Arial" font-size="12" fill="white" text-anchor="middle">gmail</text>
  <rect x="560" y="205" width="100" height="30" rx="5" fill="#4A5568" stroke="#a0aec0" stroke-width="1" />
  <text x="610" y="225" font-family="Arial" font-size="12" fill="white" text-anchor="middle">email</text>
  <rect x="680" y="205" width="100" height="30" rx="5" fill="#4A5568" stroke="#a0aec0" stroke-width="1" />
  <text x="730" y="225" font-family="Arial" font-size="12" fill="white" text-anchor="middle">auth</text>
  
  <!-- Services Layer -->
  <rect x="540" y="260" width="380" height="110" rx="5" fill="#2d3748" stroke="#a0aec0" stroke-width="1" />
  <text x="730" y="280" font-family="Arial" font-size="16" fill="white" text-anchor="middle">Services (Business Logic)</text>
  <rect x="560" y="290" width="100" height="30" rx="5" fill="#4A5568" stroke="#a0aec0" stroke-width="1" />
  <text x="610" y="310" font-family="Arial" font-size="12" fill="white" text-anchor="middle">ApplicationService</text>
  <rect x="680" y="290" width="100" height="30" rx="5" fill="#4A5568" stroke="#a0aec0" stroke-width="1" />
  <text x="730" y="310" font-family="Arial" font-size="12" fill="white" text-anchor="middle">WorkflowService</text>
  <rect x="800" y="290" width="100" height="30" rx="5" fill="#4A5568" stroke="#a0aec0" stroke-width="1" />
  <text x="850" y="310" font-family="Arial" font-size="12" fill="white" text-anchor="middle">GmailService</text>
  <rect x="560" y="330" width="100" height="30" rx="5" fill="#4A5568" stroke="#a0aec0" stroke-width="1" />
  <text x="610" y="350" font-family="Arial" font-size="12" fill="white" text-anchor="middle">EmailService</text>
  <rect x="680" y="330" width="100" height="30" rx="5" fill="#4A5568" stroke="#a0aec0" stroke-width="1" />
  <text x="730" y="350" font-family="Arial" font-size="12" fill="white" text-anchor="middle">AuthService</text>
  <rect x="800" y="330" width="100" height="30" rx="5" fill="#4A5568" stroke="#a0aec0" stroke-width="1" />
  <text x="850" y="350" font-family="Arial" font-size="12" fill="white" text-anchor="middle">MailSenderService</text>
  
  <!-- Domain Models -->
  <rect x="540" y="390" width="380" height="110" rx="5" fill="#2d3748" stroke="#a0aec0" stroke-width="1" />
  <text x="730" y="410" font-family="Arial" font-size="16" fill="white" text-anchor="middle">Models (Data Structures)</text>
  <rect x="560" y="420" width="100" height="30" rx="5" fill="#4A5568" stroke="#a0aec0" stroke-width="1" />
  <text x="610" y="440" font-family="Arial" font-size="12" fill="white" text-anchor="middle">Application</text>
  <rect x="680" y="420" width="100" height="30" rx="5" fill="#4A5568" stroke="#a0aec0" stroke-width="1" />
  <text x="730" y="440" font-family="Arial" font-size="12" fill="white" text-anchor="middle">Workflow</text>
  <rect x="800" y="420" width="100" height="30" rx="5" fill="#4A5568" stroke="#a0aec0" stroke-width="1" />
  <text x="850" y="440" font-family="Arial" font-size="12" fill="white" text-anchor="middle">Email</text>
  <rect x="560" y="460" width="100" height="30" rx="5" fill="#4A5568" stroke="#a0aec0" stroke-width="1" />
  <text x="610" y="480" font-family="Arial" font-size="12" fill="white" text-anchor="middle">User</text>
  <rect x="680" y="460" width="100" height="30" rx="5" fill="#4A5568" stroke="#a0aec0" stroke-width="1" />
  <text x="730" y="480" font-family="Arial" font-size="12" fill="white" text-anchor="middle">Auth</text>
  <rect x="800" y="460" width="100" height="30" rx="5" fill="#4A5568" stroke="#a0aec0" stroke-width="1" />
  <text x="850" y="480" font-family="Arial" font-size="12" fill="white" text-anchor="middle">Gmail</text>
  
  <!-- Database -->
  <rect x="540" y="520" width="380" height="60" rx="5" fill="#2d3748" stroke="#10B981" stroke-width="2" />
  <text x="730" y="550" font-family="Arial" font-size="16" fill="white" text-anchor="middle">Database (MongoDB)</text>
  <rect x="560" y="590" width="80" height="25" rx="5" fill="#4A5568" stroke="#10B981" stroke-width="1" />
  <text x="600" y="607" font-family="Arial" font-size="10" fill="white" text-anchor="middle">users</text>
  <rect x="650" y="590" width="80" height="25" rx="5" fill="#4A5568" stroke="#10B981" stroke-width="1" />
  <text x="690" y="607" font-family="Arial" font-size="10" fill="white" text-anchor="middle">applications</text>
  <rect x="740" y="590" width="80" height="25" rx="5" fill="#4A5568" stroke="#10B981" stroke-width="1" />
  <text x="780" y="607" font-family="Arial" font-size="10" fill="white" text-anchor="middle">workflows</text>
  <rect x="830" y="590" width="80" height="25" rx="5" fill="#4A5568" stroke="#10B981" stroke-width="1" />
  <text x="870" y="607" font-family="Arial" font-size="10" fill="white" text-anchor="middle">emails</text>
  
  <!-- External Services -->
  <rect x="540" y="630" width="380" height="80" rx="5" fill="#2d3748" stroke="#F59E0B" stroke-width="2" />
  <text x="730" y="655" font-family="Arial" font-size="16" fill="white" text-anchor="middle">External Services</text>
  <rect x="570" y="670" width="150" height="30" rx="5" fill="#4A5568" stroke="#F59E0B" stroke-width="1" />
  <text x="645" y="690" font-family="Arial" font-size="12" fill="white" text-anchor="middle">Gmail API</text>
  <rect x="740" y="670" width="150" height="30" rx="5" fill="#4A5568" stroke="#F59E0B" stroke-width="1" />
  <text x="815" y="690" font-family="Arial" font-size="12" fill="white" text-anchor="middle">Email SMTP Server</text>
  
  <!-- Connections -->
  <!-- Frontend layers -->
  <line x1="270" y1="240" x2="270" y2="260" stroke="#a0aec0" stroke-width="2" stroke-dasharray="5,5" />
  <line x1="270" y1="370" x2="270" y2="390" stroke="#a0aec0" stroke-width="2" stroke-dasharray="5,5" />
  <line x1="270" y1="500" x2="270" y2="520" stroke="#a0aec0" stroke-width="2" stroke-dasharray="5,5" />
  <line x1="270" y1="630" x2="270" y2="650" stroke="#a0aec0" stroke-width="2" stroke-dasharray="5,5" />
  
  <!-- Backend layers -->
  <line x1="730" y1="240" x2="730" y2="260" stroke="#a0aec0" stroke-width="2" stroke-dasharray="5,5" />
  <line x1="730" y1="370" x2="730" y2="390" stroke="#a0aec0" stroke-width="2" stroke-dasharray="5,5" />
  <line x1="730" y1="500" x2="730" y2="520" stroke="#a0aec0" stroke-width="2" stroke-dasharray="5,5" />
  <line x1="730" y1="580" x2="730" y2="630" stroke="#a0aec0" stroke-width="2" stroke-dasharray="5,5" />
  
  <!-- Frontend to Backend connection -->
  <path d="M460,685 H490 C500,685 500,685 510,685" stroke="#3B82F6" stroke-width="3" fill="none" />
  <polygon points="506,681 516,685 506,689" fill="#3B82F6" />
  
  <!-- DI Container -->
  <rect x="80" y="720" width="380" height="60" rx="5" fill="#2d3748" stroke="#a0aec0" stroke-width="1" />
  <text x="270" y="755" font-family="Arial" font-size="16" fill="white" text-anchor="middle">Dependency Injection Container (InversifyJS)</text>
  
  <!-- Auth & Middleware -->
  <rect x="540" y="720" width="380" height="60" rx="5" fill="#2d3748" stroke="#a0aec0" stroke-width="1" />
  <text x="730" y="755" font-family="Arial" font-size="16" fill="white" text-anchor="middle">Authentication &amp; Middleware (JWT)</text>
  
  <!-- Legend -->
  <rect x="850" y="10" width="20" height="10" fill="#3B82F6" rx="2" />
  <text x="875" y="18" font-family="Arial" font-size="10" fill="white">Frontend Flow</text>
  <rect x="850" y="30" width="20" height="10" fill="#10B981" rx="2" />
  <text x="875" y="38" font-family="Arial" font-size="10" fill="white">Backend Flow</text>
  <rect x="850" y="50" width="20" height="10" fill="#F59E0B" rx="2" />
  <text x="875" y="58" font-family="Arial" font-size="10" fill="white">External Services</text>
</svg>
