<svg xmlns="http://www.w3.org/2000/svg" viewBox="0 0 1000 850">
  <!-- Background -->
  <rect width="100%" height="100%" fill="#1a1d21" />
  
  <!-- Title -->
  <text x="500" y="40" font-family="Arial" font-size="24" fill="white" text-anchor="middle" font-weight="bold">Job Application Tracker - Integrated Architecture</text>
  
  <!-- Main Containers -->
  <rect x="50" y="80" width="440" height="650" rx="10" fill="#1e2128" stroke="#3B82F6" stroke-width="2" opacity="0.8" />
  <text x="270" y="110" font-family="Arial" font-size="18" fill="white" text-anchor="middle" font-weight="bold">Frontend (React + TypeScript)</text>
  
  <rect x="510" y="80" width="440" height="650" rx="10" fill="#1e2128" stroke="#10B981" stroke-width="2" opacity="0.8" />
  <text x="730" y="110" font-family="Arial" font-size="18" fill="white" text-anchor="middle" font-weight="bold">Backend (FastAPI + Python)</text>
  
  <!-- External Systems Container -->
  <rect x="50" y="740" width="900" height="50" rx="5" fill="#1e2128" stroke="#F59E0B" stroke-width="2" opacity="0.8" />
  <text x="500" y="770" font-family="Arial" font-size="14" fill="white" text-anchor="middle" font-weight="bold">External Services</text>
  
  <!-- Frontend Architecture -->
  <!-- Views Layer -->
  <rect x="80" y="140" width="380" height="100" rx="5" fill="#2d3748" stroke="#a0aec0" stroke-width="1" />
  <text x="270" y="160" font-family="Arial" font-size="16" fill="white" text-anchor="middle">Views (UI Components)</text>
  <rect x="100" y="170" width="100" height="30" rx="5" fill="#4A5568" stroke="#a0aec0" stroke-width="1" />
  <text x="150" y="190" font-family="Arial" font-size="12" fill="white" text-anchor="middle">JobTracker</text>
  <rect x="220" y="170" width="100" height="30" rx="5" fill="#4A5568" stroke="#a0aec0" stroke-width="1" />
  <text x="270" y="190" font-family="Arial" font-size="12" fill="white" text-anchor="middle">GmailImport</text>
  <rect x="340" y="170" width="100" height="30" rx="5" fill="#4A5568" stroke="#a0aec0" stroke-width="1" />
  <text x="390" y="190" font-family="Arial" font-size="12" fill="white" text-anchor="middle">Analytics</text>
  <rect x="100" y="205" width="100" height="30" rx="5" fill="#4A5568" stroke="#a0aec0" stroke-width="1" />
  <text x="150" y="225" font-family="Arial" font-size="12" fill="white" text-anchor="middle">WorkflowEditor</text>
  <rect x="220" y="205" width="100" height="30" rx="5" fill="#4A5568" stroke="#a0aec0" stroke-width="1" />
  <text x="270" y="225" font-family="Arial" font-size="12" fill="white" text-anchor="middle">ActivityHistory</text>
  <rect x="340" y="205" width="100" height="30" rx="5" fill="#4A5568" stroke="#a0aec0" stroke-width="1" />
  <text x="390" y="225" font-family="Arial" font-size="12" fill="white" text-anchor="middle">Login/Auth</text>
  
  <!-- ViewModels -->
  <rect x="80" y="250" width="380" height="110" rx="5" fill="#2d3748" stroke="#a0aec0" stroke-width="1" />
  <text x="270" y="270" font-family="Arial" font-size="16" fill="white" text-anchor="middle">ViewModels (Presentation Logic)</text>
  <rect x="100" y="280" width="100" height="30" rx="5" fill="#4A5568" stroke="#a0aec0" stroke-width="1" />
  <text x="150" y="300" font-family="Arial" font-size="12" fill="white" text-anchor="middle">JobTrackerVM</text>
  <rect x="220" y="280" width="100" height="30" rx="5" fill="#4A5568" stroke="#a0aec0" stroke-width="1" />
  <text x="270" y="300" font-family="Arial" font-size="12" fill="white" text-anchor="middle">GmailImportVM</text>
  <rect x="340" y="280" width="100" height="30" rx="5" fill="#4A5568" stroke="#a0aec0" stroke-width="1" />
  <text x="390" y="300" font-family="Arial" font-size="12" fill="white" text-anchor="middle">AnalyticsVM</text>
  <rect x="100" y="315" width="110" height="30" rx="5" fill="#4A5568" stroke="#a0aec0" stroke-width="1" />
  <text x="155" y="335" font-family="Arial" font-size="12" fill="white" text-anchor="middle">WorkflowEditorVM</text>
  <rect x="220" y="315" width="110" height="30" rx="5" fill="#4A5568" stroke="#a0aec0" stroke-width="1" />
  <text x="275" y="335" font-family="Arial" font-size="12" fill="white" text-anchor="middle">ActivityHistoryVM</text>
  <rect x="340" y="315" width="110" height="30" rx="5" fill="#4A5568" stroke="#a0aec0" stroke-width="1" />
  <text x="395" y="335" font-family="Arial" font-size="12" fill="white" text-anchor="middle">OSTDecisionVM</text>
  
  <!-- Domain Models -->
  <rect x="80" y="370" width="380" height="110" rx="5" fill="#2d3748" stroke="#a0aec0" stroke-width="1" />
  <text x="270" y="390" font-family="Arial" font-size="16" fill="white" text-anchor="middle">Domain Models (Business Logic)</text>
  <rect x="100" y="400" width="110" height="30" rx="5" fill="#4A5568" stroke="#a0aec0" stroke-width="1" />
  <text x="155" y="420" font-family="Arial" font-size="12" fill="white" text-anchor="middle">ApplicationModel</text>
  <rect x="220" y="400" width="110" height="30" rx="5" fill="#4A5568" stroke="#a0aec0" stroke-width="1" />
  <text x="275" y="420" font-family="Arial" font-size="12" fill="white" text-anchor="middle">GmailImportModel</text>
  <rect x="340" y="400" width="110" height="30" rx="5" fill="#4A5568" stroke="#a0aec0" stroke-width="1" />
  <text x="395" y="420" font-family="Arial" font-size="12" fill="white" text-anchor="middle">EmailProcModel</text>
  <rect x="100" y="435" width="110" height="30" rx="5" fill="#4A5568" stroke="#a0aec0" stroke-width="1" />
  <text x="155" y="455" font-family="Arial" font-size="12" fill="white" text-anchor="middle">WorkflowModel</text>
  <rect x="220" y="435" width="110" height="30" rx="5" fill="#4A5568" stroke="#a0aec0" stroke-width="1" />
  <text x="275" y="455" font-family="Arial" font-size="12" fill="white" text-anchor="middle">ActivityHistory</text>
  <rect x="340" y="435" width="110" height="30" rx="5" fill="#4A5568" stroke="#a0aec0" stroke-width="1" />
  <text x="395" y="455" font-family="Arial" font-size="12" fill="white" text-anchor="middle">OSTModel</text>
  
  <!-- Infrastructure Services -->
  <rect x="80" y="490" width="380" height="110" rx="5" fill="#2d3748" stroke="#a0aec0" stroke-width="1" />
  <text x="270" y="510" font-family="Arial" font-size="16" fill="white" text-anchor="middle">Infrastructure Services (API Communication)</text>
  <rect x="100" y="520" width="110" height="30" rx="5" fill="#4A5568" stroke="#3B82F6" stroke-width="1" />
  <text x="155" y="540" font-family="Arial" font-size="12" fill="white" text-anchor="middle">ApplicationService</text>
  <rect x="220" y="520" width="110" height="30" rx="5" fill="#4A5568" stroke="#3B82F6" stroke-width="1" />
  <text x="275" y="540" font-family="Arial" font-size="12" fill="white" text-anchor="middle">GmailService</text>
  <rect x="340" y="520" width="110" height="30" rx="5" fill="#4A5568" stroke="#3B82F6" stroke-width="1" />
  <text x="395" y="540" font-family="Arial" font-size="12" fill="white" text-anchor="middle">EmailService</text>
  <rect x="100" y="555" width="110" height="30" rx="5" fill="#4A5568" stroke="#3B82F6" stroke-width="1" />
  <text x="155" y="575" font-family="Arial" font-size="12" fill="white" text-anchor="middle">WorkflowService</text>
  <rect x="220" y="555" width="110" height="30" rx="5" fill="#4A5568" stroke="#3B82F6" stroke-width="1" />
  <text x="275" y="575" font-family="Arial" font-size="12" fill="white" text-anchor="middle">AnalyticsService</text>
  <rect x="340" y="555" width="110" height="30" rx="5" fill="#4A5568" stroke="#3B82F6" stroke-width="1" />
  <text x="395" y="575" font-family="Arial" font-size="12" fill="white" text-anchor="middle">OSTService</text>
  
  <!-- API Client -->
  <rect x="80" y="610" width="380" height="60" rx="5" fill="#2d3748" stroke="#3B82F6" stroke-width="2" />
  <text x="270" y="645" font-family="Arial" font-size="16" fill="white" text-anchor="middle">API Client (axios)</text>
  
  <!-- DI Container -->
  <rect x="80" y="680" width="380" height="40" rx="5" fill="#2d3748" stroke="#a0aec0" stroke-width="1" />
  <text x="270" y="705" font-family="Arial" font-size="14" fill="white" text-anchor="middle">Dependency Injection Container (InversifyJS)</text>

  <!-- Backend Architecture -->
  <!-- API Routers Layer -->
  <rect x="540" y="140" width="390" height="100" rx="5" fill="#2d3748" stroke="#a0aec0" stroke-width="1" />
  <text x="730" y="160" font-family="Arial" font-size="16" fill="white" text-anchor="middle">API Routers (Endpoints)</text>
  <rect x="560" y="170" width="100" height="30" rx="5" fill="#4A5568" stroke="#a0aec0" stroke-width="1" />
  <text x="610" y="190" font-family="Arial" font-size="12" fill="white" text-anchor="middle">applications</text>
  <rect x="680" y="170" width="100" height="30" rx="5" fill="#4A5568" stroke="#a0aec0" stroke-width="1" />
  <text x="730" y="190" font-family="Arial" font-size="12" fill="white" text-anchor="middle">workflow</text>
  <rect x="800" y="170" width="100" height="30" rx="5" fill="#4A5568" stroke="#a0aec0" stroke-width="1" />
  <text x="850" y="190" font-family="Arial" font-size="12" fill="white" text-anchor="middle">gmail</text>
  <rect x="560" y="205" width="100" height="30" rx="5" fill="#4A5568" stroke="#a0aec0" stroke-width="1" />
  <text x="610" y="225" font-family="Arial" font-size="12" fill="white" text-anchor="middle">email</text>
  <rect x="680" y="205" width="100" height="30" rx="5" fill="#4A5568" stroke="#a0aec0" stroke-width="1" />
  <text x="730" y="225" font-family="Arial" font-size="12" fill="white" text-anchor="middle">ost</text>
  <rect x="800" y="205" width="100" height="30" rx="5" fill="#4A5568" stroke="#a0aec0" stroke-width="1" />
  <text x="850" y="225" font-family="Arial" font-size="12" fill="white" text-anchor="middle">auth</text>
  
  <!-- Core Backend Services -->
  <rect x="540" y="250" width="390" height="200" rx="5" fill="#2d3748" stroke="#a0aec0" stroke-width="1" />
  <text x="730" y="270" font-family="Arial" font-size="16" fill="white" text-anchor="middle">Core Services (Business Logic)</text>
  
  <!-- Basic Services -->
  <rect x="560" y="280" width="110" height="30" rx="5" fill="#4A5568" stroke="#a0aec0" stroke-width="1" />
  <text x="615" y="300" font-family="Arial" font-size="12" fill="white" text-anchor="middle">ApplicationService</text>
  <rect x="680" y="280" width="110" height="30" rx="5" fill="#4A5568" stroke="#a0aec0" stroke-width="1" />
  <text x="735" y="300" font-family="Arial" font-size="12" fill="white" text-anchor="middle">WorkflowService</text>
  <rect x="800" y="280" width="110" height="30" rx="5" fill="#4A5568" stroke="#a0aec0" stroke-width="1" />
  <text x="855" y="300" font-family="Arial" font-size="12" fill="white" text-anchor="middle">GmailService</text>
  <rect x="560" y="315" width="110" height="30" rx="5" fill="#4A5568" stroke="#a0aec0" stroke-width="1" />
  <text x="615" y="335" font-family="Arial" font-size="12" fill="white" text-anchor="middle">EmailService</text>
  <rect x="680" y="315" width="110" height="30" rx="5" fill="#4A5568" stroke="#a0aec0" stroke-width="1" />
  <text x="735" y="335" font-family="Arial" font-size="12" fill="white" text-anchor="middle">AuthService</text>
  <rect x="800" y="315" width="110" height="30" rx="5" fill="#4A5568" stroke="#a0aec0" stroke-width="1" />
  <text x="855" y="335" font-family="Arial" font-size="12" fill="white" text-anchor="middle">MailSenderService</text>
  
  <!-- AI Services -->
  <rect x="560" y="350" width="110" height="30" rx="5" fill="#4A5568" stroke="#8B5CF6" stroke-width="1" />
  <text x="615" y="370" font-family="Arial" font-size="12" fill="white" text-anchor="middle">DataEnrichment</text>
  <rect x="680" y="350" width="110" height="30" rx="5" fill="#4A5568" stroke="#8B5CF6" stroke-width="1" />
  <text x="735" y="370" font-family="Arial" font-size="12" fill="white" text-anchor="middle">JobQuality</text>
  <rect x="800" y="350" width="110" height="30" rx="5" fill="#4A5568" stroke="#8B5CF6" stroke-width="1" />
  <text x="855" y="370" font-family="Arial" font-size="12" fill="white" text-anchor="middle">DataCollection</text>
  
  <!-- AI Research & OST -->
  <rect x="560" y="385" width="110" height="30" rx="5" fill="#4A5568" stroke="#8B5CF6" stroke-width="1" />
  <text x="615" y="405" font-family="Arial" font-size="12" fill="white" text-anchor="middle">ResearchSystem</text>
  <rect x="680" y="385" width="110" height="30" rx="5" fill="#4A5568" stroke="#8B5CF6" stroke-width="1" />
  <text x="735" y="405" font-family="Arial" font-size="12" fill="white" text-anchor="middle">OSTProcessor</text>
  <rect x="800" y="385" width="120" height="30" rx="5" fill="#4A5568" stroke="#8B5CF6" stroke-width="1" />
  <text x="860" y="405" font-family="Arial" font-size="12" fill="white" text-anchor="middle">MetaReasoningCtrl</text>
  
  <!-- User Onboarding -->
  <rect x="560" y="420" width="110" height="30" rx="5" fill="#4A5568" stroke="#8B5CF6" stroke-width="1" />
  <text x="615" y="440" font-family="Arial" font-size="12" fill="white" text-anchor="middle">PDFParser</text>
  <rect x="680" y="420" width="110" height="30" rx="5" fill="#4A5568" stroke="#8B5CF6" stroke-width="1" />
  <text x="735" y="440" font-family="Arial" font-size="12" fill="white" text-anchor="middle">FieldExtractor</text>
  <rect x="800" y="420" width="120" height="30" rx="5" fill="#4A5568" stroke="#8B5CF6" stroke-width="1" />
  <text x="860" y="440" font-family="Arial" font-size="12" fill="white" text-anchor="middle">QuestionGenerator</text>
  
  <!-- Domain Models -->
  <rect x="540" y="460" width="390" height="120" rx="5" fill="#2d3748" stroke="#a0aec0" stroke-width="1" />
  <text x="730" y="480" font-family="Arial" font-size="16" fill="white" text-anchor="middle">Models (Data Structures)</text>
  <!-- Core Models -->
  <rect x="560" y="490" width="85" height="30" rx="5" fill="#4A5568" stroke="#a0aec0" stroke-width="1" />
  <text x="602" y="510" font-family="Arial" font-size="12" fill="white" text-anchor="middle">Application</text>
  <rect x="655" y="490" width="85" height="30" rx="5" fill="#4A5568" stroke="#a0aec0" stroke-width="1" />
  <text x="697" y="510" font-family="Arial" font-size="12" fill="white" text-anchor="middle">Workflow</text>
  <rect x="750" y="490" width="80" height="30" rx="5" fill="#4A5568" stroke="#a0aec0" stroke-width="1" />
  <text x="790" y="510" font-family="Arial" font-size="12" fill="white" text-anchor="middle">Email</text>
  <rect x="840" y="490" width="70" height="30" rx="5" fill="#4A5568" stroke="#a0aec0" stroke-width="1" />
  <text x="875" y="510" font-family="Arial" font-size="12" fill="white" text-anchor="middle">User</text>
  
  <!-- AI/OST Models -->
  <rect x="560" y="525" width="85" height="30" rx="5" fill="#4A5568" stroke="#8B5CF6" stroke-width="1" />
  <text x="602" y="545" font-family="Arial" font-size="12" fill="white" text-anchor="middle">AIAgent</text>
  <rect x="655" y="525" width="85" height="30" rx="5" fill="#4A5568" stroke="#8B5CF6" stroke-width="1" />
  <text x="697" y="545" font-family="Arial" font-size="12" fill="white" text-anchor="middle">OSTMetrics</text>
  <rect x="750" y="525" width="80" height="30" rx="5" fill="#4A5568" stroke="#8B5CF6" stroke-width="1" />
  <text x="790" y="545" font-family="Arial" font-size="12" fill="white" text-anchor="middle">Research</text>
  <rect x="840" y="525" width="70" height="30" rx="5" fill="#4A5568" stroke="#8B5CF6" stroke-width="1" />
  <text x="875" y="545" font-family="Arial" font-size="12" fill="white" text-anchor="middle">MarketData</text>
  
  <!-- Database -->
  <rect x="540" y="590" width="390" height="90" rx="5" fill="#2d3748" stroke="#10B981" stroke-width="2" />
  <text x="730" y="610" font-family="Arial" font-size="16" fill="white" text-anchor="middle">Database (MongoDB)</text>
  <!-- Core Collections -->
  <rect x="560" y="620" width="85" height="25" rx="5" fill="#4A5568" stroke="#10B981" stroke-width="1" />
  <text x="602" y="637" font-family="Arial" font-size="10" fill="white" text-anchor="middle">users</text>
  <rect x="655" y="620" width="85" height="25" rx="5" fill="#4A5568" stroke="#10B981" stroke-width="1" />
  <text x="697" y="637" font-family="Arial" font-size="10" fill="white" text-anchor="middle">applications</text>
  <rect x="750" y="620" width="80" height="25" rx="5" fill="#4A5568" stroke="#10B981" stroke-width="1" />
  <text x="790" y="637" font-family="Arial" font-size="10" fill="white" text-anchor="middle">workflows</text>
  <rect x="840" y="620" width="70" height="25" rx="5" fill="#4A5568" stroke="#10B981" stroke-width="1" />
  <text x="875" y="637" font-family="Arial" font-size="10" fill="white" text-anchor="middle">emails</text>
  <!-- AI Collections -->
  <rect x="560" y="650" width="85" height="25" rx="5" fill="#4A5568" stroke="#8B5CF6" stroke-width="1" />
  <text x="602" y="667" font-family="Arial" font-size="10" fill="white" text-anchor="middle">ai_results</text>
  <rect x="655" y="650" width="85" height="25" rx="5" fill="#4A5568" stroke="#8B5CF6" stroke-width="1" />
  <text x="697" y="667" font-family="Arial" font-size="10" fill="white" text-anchor="middle">research_data</text>
  <rect x="750" y="650" width="80" height="25" rx="5" fill="#4A5568" stroke="#8B5CF6" stroke-width="1" />
  <text x="790" y="667" font-family="Arial" font-size="10" fill="white" text-anchor="middle">ost_metrics</text>
  <rect x="840" y="650" width="70" height="25" rx="5" fill="#4A5568" stroke="#8B5CF6" stroke-width="1" />
  <text x="875" y="667" font-family="Arial" font-size="10" fill="white" text-anchor="middle">market_data</text>
  
  <!-- Auth & Middleware -->
  <rect x="540" y="690" width="390" height="30" rx="5" fill="#2d3748" stroke="#a0aec0" stroke-width="1" />
  <text x="730" y="710" font-family="Arial" font-size="14" fill="white" text-anchor="middle">Authentication &amp; Middleware (JWT)</text>
  
  <!-- External Services -->
  <rect x="90" y="750" width="150" height="30" rx="5" fill="#4A5568" stroke="#F59E0B" stroke-width="1" />
  <text x="165" y="770" font-family="Arial" font-size="12" fill="white" text-anchor="middle">Gmail API</text>
  
  <rect x="250" y="750" width="150" height="30" rx="5" fill="#4A5568" stroke="#F59E0B" stroke-width="1" />
  <text x="325" y="770" font-family="Arial" font-size="12" fill="white" text-anchor="middle">Email SMTP Server</text>
  
  <rect x="410" y="750" width="150" height="30" rx="5" fill="#4A5568" stroke="#F59E0B" stroke-width="1" />
  <text x="485" y="770" font-family="Arial" font-size="12" fill="white" text-anchor="middle">Gemini AI API</text>
  
  <rect x="570" y="750" width="150" height="30" rx="5" fill="#4A5568" stroke="#F59E0B" stroke-width="1" />
  <text x="645" y="770" font-family="Arial" font-size="12" fill="white" text-anchor="middle">Cloud Storage</text>
  
  <rect x="730" y="750" width="150" height="30" rx="5" fill="#4A5568" stroke="#F59E0B" stroke-width="1" />
  <text x="805" y="770" font-family="Arial" font-size="12" fill="white" text-anchor="middle">Market Data API</text>
  
  <!-- Connections -->
  <!-- Frontend layers -->
  <line x1="270" y1="240" x2="270" y2="250" stroke="#a0aec0" stroke-width="2" stroke-dasharray="5,5" />
  <line x1="270" y1="360" x2="270" y2="370" stroke="#a0aec0" stroke-width="2" stroke-dasharray="5,5" />
  <line x1="270" y1="480" x2="270" y2="490" stroke="#a0aec0" stroke-width="2" stroke-dasharray="5,5" />
  <line x1="270" y1="600" x2="270" y2="610" stroke="#a0aec0" stroke-width="2" stroke-dasharray="5,5" />
  <line x1="270" y1="670" x2="270" y2="680" stroke="#a0aec0" stroke-width="2" stroke-dasharray="5,5" />
  
  <!-- Backend layers -->
  <line x1="730" y1="240" x2="730" y2="250" stroke="#a0aec0" stroke-width="2" stroke-dasharray="5,5" />
  <line x1="730" y1="450" x2="730" y2="460" stroke="#a0aec0" stroke-width="2" stroke-dasharray="5,5" />
  <line x1="730" y1="580" x2="730" y2="590" stroke="#a0aec0" stroke-width="2" stroke-dasharray="5,5" />
  <line x1="730" y1="680" x2="730" y2="690" stroke="#a0aec0" stroke-width="2" stroke-dasharray="5,5" />
  
  <!-- Frontend to Backend connection -->
  <path d="M460,645 H490 C500,645 500,645 510,645" stroke="#3B82F6" stroke-width="3" fill="none" />
  <polygon points="506,641 516,645 506,649" fill="#3B82F6" />
  
  <!-- Backend to External connection -->
  <path d="M730,720 V730 C730,735 730,735 730,740" stroke="#10B981" stroke-width="3" fill="none" />
  <polygon points="726,736 730,746 734,736" fill="#10B981" />
  
  <!-- Legend -->
  <rect x="825" y="5" width="20" height="10" fill="#3B82F6" rx="2" />
  <text x="850" y="13" font-family="Arial" font-size="10" fill="white">Frontend Components</text>
  <rect x="825" y="25" width="20" height="10" fill="#10B981" rx="2" />
  <text x="850" y="33" font-family="Arial" font-size="10" fill="white">Backend Components</text>
  <rect x="825" y="45" width="20" height="10" fill="#8B5CF6" rx="2" />
  <text x="850" y="53" font-family="Arial" font-size="10" fill="white">AI Components</text>
  <rect x="825" y="65" width="20" height="10" fill="#F59E0B" rx="2" />
  <text x="850" y="73" font-family="Arial" font-size="10" fill="white">External Services</text>
</svg>